<svg width="70" height="70" viewBox="0 0 70 70" fill="none" xmlns="http://www.w3.org/2000/svg">
<ellipse cx="35.0001" cy="35" rx="35.0001" ry="35" fill="#E8E7E7"/>
<path d="M35.0854 34.8136C38.4557 34.8136 41.1872 32.1024 41.1872 28.7583C41.1872 25.4143 38.4557 22.7031 35.0854 22.7031C31.7151 22.7031 28.9836 25.4143 28.9836 28.7583C28.9836 32.1024 31.7151 34.8136 35.0854 34.8136ZM37.5023 37.0843L32.6685 37.0843C28.1069 37.0843 24.4072 40.7553 24.4072 45.2825C24.4072 46.1879 25.1471 46.9226 26.0595 46.9226L44.1123 46.9226C45.0247 46.924 45.7636 46.1908 45.7636 45.2825C45.7636 40.7553 42.0644 37.0843 37.5023 37.0843Z" fill="white"/>
</svg>

