<svg width="44" height="44" viewBox="0 0 44 44" fill="none" xmlns="http://www.w3.org/2000/svg">
<rect x="0.5" y="0.5" width="43" height="43" rx="9.5" stroke="#CCCCCC"/>
<path d="M22.0003 22.0005C24.1213 22.0005 25.8403 20.2094 25.8403 18.0002C25.8403 15.791 24.1213 14 22.0003 14C19.8793 14 18.1603 15.791 18.1603 18.0002C18.1603 20.2094 19.8793 22.0005 22.0003 22.0005ZM23.5213 23.5006H20.4793C17.6086 23.5006 15.2803 25.9257 15.2803 28.9165C15.2803 29.5147 15.7459 30 16.3201 30H27.6811C28.2553 30.0009 28.7203 29.5165 28.7203 28.9165C28.7203 25.9257 26.3923 23.5006 23.5213 23.5006Z" fill="#373737"/>
</svg>
