<svg width="35" height="35" viewBox="0 0 35 35" fill="none" xmlns="http://www.w3.org/2000/svg">
<rect width="35" height="35" rx="8" fill="#E8E7E7"/>
<g clip-path="url(#clip0_920_12545)">
<path d="M17.5245 13.3017C17.7434 13.0807 17.9478 12.8484 18.1799 12.6444C19.4336 11.5416 21.1186 11.3227 22.4272 12.0841C23.7753 12.8689 24.4535 14.5192 24.0522 16.0817C23.6882 17.5004 22.8029 18.6202 21.8033 19.6663C20.5811 20.9455 19.1692 22.0129 17.7171 23.0321C17.6263 23.0959 17.4227 23.1277 17.3473 23.0746C15.3525 21.6694 13.4105 20.2039 11.9818 18.2158C11.3417 17.3262 10.857 16.3657 10.8343 15.2502C10.8042 13.7798 11.6618 12.434 12.9528 11.895C14.2482 11.3539 15.8131 11.6854 16.9204 12.735C17.11 12.915 17.3019 13.0927 17.5245 13.3017Z" fill="#F44444"/>
</g>
<defs>
<clipPath id="clip0_920_12545">
<rect width="13.3333" height="13.3333" fill="white" transform="translate(10.8335 10.834)"/>
</clipPath>
</defs>
</svg>
